<svg width="28" height="28" xmlns="http://www.w3.org/2000/svg">

 <g class="currentLayer">
  <title>Layer 1</title>
  <g stroke="black" transform="translate(-0.020834393799304962,4.954065322875977) scale(1.0067315101623535) translate(0.020834393799304962,-4.954065322875977) " id="svg_1" stroke-linejoin="bevel" stroke-linecap="square" fill-rule="evenodd" fill="none">
   <g stroke="#000000" id="svg_2" stroke-miterlimit="2" stroke-linecap="square" fill="#000000"/>
   <g stroke="#000000" id="svg_3" stroke-miterlimit="2" stroke-linecap="square" fill="#000000"/>
   <g stroke="#000000" id="svg_4" stroke-miterlimit="2" stroke-linecap="square" fill="#000000"/>
   <g stroke="#000000" id="svg_5" stroke-miterlimit="2" stroke-linecap="square" fill="#000000"/>
   <g stroke="#000000" id="svg_6" stroke-miterlimit="2" stroke-linecap="square" fill="#000000"/>
   <g stroke="#000000" id="svg_7" stroke-miterlimit="2" stroke-linecap="square" fill="#000000"/>
   <g stroke="null" id="svg_8" fill="#179bd7">
    <path stroke="null" id="svg_9" stroke-width="0" d="m8.215664,12.502939c0.153737,-0.355052 0.177526,-0.698269 0.04734,-0.958641c-0.30783,-0.639094 -1.396657,-0.603589 -2.438143,0.04734c-0.414227,0.260372 -0.769279,0.579918 -1.029651,0.923135c-0.014084,0.042488 -0.04663,0.071957 -0.07101,0.106515c-0.343217,0.485238 -0.497073,0.982311 -0.355052,1.372868c0.248536,0.710104 1.349198,0.74561 2.473529,0.04734c0.591753,-0.378722 1.053321,-0.86396 1.301858,-1.349198c-0.070774,0.064856 0.056098,-0.152554 0.07101,-0.189361l0.000119,0" fill-rule="evenodd"/>
   </g>
   <g stroke="#000000" id="svg_10" stroke-miterlimit="2" stroke-linecap="square" fill="#000000"/>
   <g stroke="null" id="svg_11" fill="#179bd7">
    <path stroke="null" id="svg_12" stroke-width="0" d="m12.040522,10.781055c1.124332,-0.698269 1.668745,-1.77526 1.242682,-2.367014c-0.414228,-0.568083 -1.574064,-0.497073 -2.61555,0.153856c-1.041486,0.650929 -1.621404,1.668745 -1.290022,2.284169c0.343217,0.650929 1.550394,0.627259 2.662891,-0.07101" fill-rule="evenodd"/>
   </g>
   <g stroke="#000000" id="svg_13" stroke-miterlimit="2" stroke-linecap="square" fill="#000000"/>
   <g stroke="null" id="svg_14" fill="#179bd7">
    <path stroke="null" id="svg_15" stroke-width="0" d="m17.247952,7.514576c1.124332,-0.698269 1.574064,-1.716085 1.053321,-2.248663c-0.508908,-0.508908 -1.75159,-0.378722 -2.793076,0.272206c-1.041486,0.650929 -1.550394,1.621405 -1.112497,2.177653c0.449733,0.579919 1.739755,0.508908 2.852252,-0.201196" fill-rule="evenodd"/>
   </g>
   <g stroke="#000000" id="svg_16" stroke-miterlimit="2" stroke-linecap="square" fill="#000000"/>
   <g stroke="null" id="svg_17" fill="#179bd7">
    <path stroke="null" id="svg_18" stroke-width="0" d="m9.898374,14.887824c-0.378722,-0.769279 -1.597735,-0.79295 -2.745736,-0.082845c-1.148002,0.710104 -1.846271,1.940951 -1.562229,2.769406c0.295877,0.86396 1.550394,0.970476 2.793076,0.201196c1.230847,-0.769279 1.905446,-2.082972 1.514889,-2.887757" fill-rule="evenodd"/>
   </g>
   <g stroke="#000000" id="svg_19" stroke-miterlimit="2" stroke-linecap="square" fill="#000000"/>
   <g stroke="null" id="svg_20" fill="#179bd7">
    <path stroke="null" id="svg_21" stroke-width="0" d="m15.537193,12.500809c0.118351,-0.402392 0.094681,-0.781115 -0.118351,-1.076991c-0.497073,-0.698269 -1.810766,-0.662764 -2.958767,0.059175c-0.461568,0.284042 -0.84029,0.650929 -1.088826,1.029651c-0.140719,0.261437 -0.004734,-0.010652 -0.142021,0.260372c-0.260372,0.485238 -0.319547,0.982311 -0.106516,1.361033c0.426063,0.79295 1.787096,0.828455 3.029778,0.059175c0.591753,-0.378722 1.029651,-0.852125 1.266353,-1.337363c0.113143,-0.352212 0.004971,0.003669 0.118351,-0.355052l0,0" fill-rule="evenodd"/>
   </g>
   <g stroke="#000000" id="svg_22" stroke-miterlimit="2" stroke-linecap="square" fill="#000000"/>
   <g stroke="null" id="svg_23" fill="#179bd7">
    <path stroke="null" id="svg_24" stroke-width="0" d="m16.668034,10.650869c0.544413,0.710104 2.011962,0.686434 3.254644,-0.094681c1.242682,-0.781115 1.692415,-1.952786 1.053321,-2.603715c-0.615424,-0.627259 -2.023797,-0.520743 -3.171799,0.189361c-1.148002,0.721939 -1.668745,1.822601 -1.136167,2.509035" fill-rule="evenodd"/>
   </g>
   <g stroke="#000000" id="svg_25" stroke-miterlimit="2" stroke-linecap="square" fill="#000000"/>
   <g stroke="null" id="svg_26" fill="#179bd7">
    <path stroke="null" id="svg_27" stroke-width="0" d="m8.821383,18.840737c-1.278188,0.79295 -2.035632,2.248663 -1.68058,3.290149c0.378722,1.088826 1.822601,1.313693 3.219139,0.437898c1.396538,-0.875795 2.106642,-2.438024 1.609569,-3.45584c-0.485238,-0.958641 -1.881776,-1.065156 -3.148128,-0.272207" fill-rule="evenodd"/>
   </g>
   <g stroke="#000000" id="svg_28" stroke-miterlimit="2" stroke-linecap="square" fill="#000000"/>
   <g stroke="null" id="svg_29" fill="#179bd7">
    <path stroke="null" id="svg_30" stroke-width="0" d="m14.750753,15.136361c-1.278188,0.79295 -1.917281,2.177653 -1.408373,3.124458c0.532578,0.994146 2.106642,1.124331 3.503181,0.260372c1.396538,-0.875795 1.964622,-2.355179 1.313693,-3.278314c-0.627259,-0.875795 -2.142148,-0.9113 -3.4085,-0.106515" fill-rule="evenodd"/>
   </g>
   <g stroke="#000000" id="svg_31" stroke-miterlimit="2" stroke-linecap="square" fill="#000000"/>
   <g stroke="#000000" id="svg_32" stroke-miterlimit="2" stroke-linecap="square" fill="#000000"/>
   <g stroke="#000000" id="svg_33" stroke-miterlimit="2" stroke-linecap="square" fill="#000000"/>
   <g stroke="null" id="svg_34" fill="#179bd7">
    <path stroke="null" id="svg_35" stroke-width="0" d="m-0.020834,12.586377c22.675993,0.449733 0,0 22.675993,0.449733l0.011953,-0.497073c-22.687828,0.04734 0,0 -22.687828,0.04734l-0.000118,0" fill-rule="evenodd"/>
   </g>
   <g stroke="#000000" id="svg_36" stroke-miterlimit="2" stroke-linecap="square" fill="#000000"/>
   <g stroke="null" id="svg_37" fill="#6e6e73">
    <path stroke="null" id="svg_38" stroke-width="0" d="m27.426112,11.360973c0.81662,0.81662 0.366887,2.213158 -1.017816,3.088953c-1.396538,0.875795 -3.112623,0.81662 -3.799057,-0.07101c-0.650929,-0.852125 -0.130186,-2.153983 1.136167,-2.958767c1.278188,-0.79295 2.899592,-0.84029 3.680706,-0.059175" fill-rule="evenodd"/>
   </g>
   <g stroke="#000000" id="svg_39" stroke-miterlimit="2" stroke-linecap="square" fill="#000000"/>
   <g stroke="#000000" id="svg_40" stroke-miterlimit="2" stroke-linecap="square" fill="#000000"/>
   <g stroke="null" id="svg_41" fill="#6e6e73"/>
   <g stroke="#000000" id="svg_42" stroke-miterlimit="2" stroke-linecap="square" fill="#000000"/>
   <g stroke="null" id="svg_43" fill="#6e6e73"/>
   <g stroke="#000000" id="svg_44" stroke-miterlimit="2" stroke-linecap="square" fill="#000000"/>
   <g stroke="null" id="svg_45" fill="#6e6e73">
    <path stroke="null" id="svg_46" stroke-width="0" d="m22.07666,7.561916c0,-0.07101 0,-0.142021 0,-0.224866c-0.07101,0 -0.165691,0 -0.224866,0.011835c0,-0.011835 0,-0.02367 0,-0.035505c0,-0.011835 0,-0.02367 0,-0.035505c0.094681,0 0.177526,0 0.272206,0c0.094681,0 0.177526,0 0.272207,0c0,0.011835 0,0.02367 0,0.035505c0,0.011835 0,0.02367 0,0.035505c-0.059175,-0.011835 -0.153856,-0.011835 -0.224866,-0.011835c0,0.07101 0,0.142021 0,0.224866l0,0.177526c0,0.094681 0,0.189361 0.011835,0.272207c-0.02367,0 -0.035505,0 -0.04734,0c-0.011835,0 -0.035505,0 -0.04734,0c0,-0.094681 0.011835,-0.189361 0.011835,-0.272207l0,-0.177526l-0.02367,0m0.520743,-0.284042c0.094681,0.201196 0.201196,0.390557 0.307712,0.591753c0.04734,-0.082846 0.213031,-0.390557 0.319547,-0.591753l0.011835,0c0.035505,0.272206 0.059175,0.508908 0.082846,0.745609c-0.011835,0 -0.035505,0 -0.04734,0c-0.011835,0 -0.035505,0 -0.04734,0c-0.011835,-0.189361 -0.035505,-0.366887 -0.04734,-0.544413c-0.094681,0.177526 -0.189361,0.355052 -0.284042,0.544413l-0.011835,0c-0.082845,-0.177526 -0.177526,-0.355052 -0.272206,-0.544413c-0.02367,0.177526 -0.04734,0.426063 -0.04734,0.544413c-0.011835,0 -0.02367,0 -0.035505,0c-0.011835,0 -0.02367,0 -0.035505,0c0.035505,-0.236701 0.082845,-0.520743 0.106515,-0.745609l0,0" fill-rule="nonzero"/>
   </g>
   <g stroke="#000000" id="svg_47" stroke-miterlimit="2" stroke-linecap="square" fill="#000000"/>
   <g stroke="#000000" id="svg_48" stroke-miterlimit="2" stroke-linecap="square" fill="#000000"/>
   <g stroke="#000000" id="svg_49" stroke-miterlimit="2" stroke-linecap="square" fill="#000000"/>
   <g stroke="#000000" id="svg_50" stroke-miterlimit="2" stroke-linecap="square" fill="#000000"/>
   <g stroke="#000000" id="svg_51" stroke-miterlimit="2" stroke-linecap="square" fill="#000000"/>
   <g stroke="#000000" id="svg_52" stroke-miterlimit="2" stroke-linecap="square" fill="#000000"/>
   <g stroke="#000000" id="svg_53" stroke-miterlimit="2" stroke-linecap="square" fill="#000000"/>
   <g stroke="#000000" id="svg_54" stroke-miterlimit="2" stroke-linecap="square" fill="#000000"/>
   <g stroke="#000000" id="svg_55" stroke-miterlimit="2" stroke-linecap="square" fill="#000000"/>
   <g stroke="#000000" id="svg_56" stroke-miterlimit="2" stroke-linecap="square" fill="#000000"/>
   <g stroke="#000000" id="svg_57" stroke-miterlimit="2" stroke-linecap="square" fill="#000000"/>
   <g stroke="#000000" id="svg_58" stroke-miterlimit="2" stroke-linecap="square" fill="#000000"/>
   <g stroke="#000000" id="svg_59" stroke-miterlimit="2" stroke-linecap="square" fill="#000000"/>
   <g stroke="#000000" id="svg_60" stroke-miterlimit="2" stroke-linecap="square" fill="#000000"/>
   <g stroke="#000000" id="svg_61" stroke-miterlimit="2" stroke-linecap="square" fill="#000000"/>
   <g stroke="#000000" id="svg_62" stroke-miterlimit="2" stroke-linecap="square" fill="#000000"/>
   <g stroke="#000000" id="svg_63" stroke-miterlimit="2" stroke-linecap="square" fill="#000000"/>
   <g stroke="#000000" id="svg_64" stroke-miterlimit="2" stroke-linecap="square" fill="#000000"/>
   <g stroke="#000000" id="svg_65" stroke-miterlimit="2" stroke-linecap="square" fill="#000000"/>
   <g stroke="#000000" id="svg_66" stroke-miterlimit="2" stroke-linecap="square" fill="#000000"/>
   <g stroke="#000000" id="svg_67" stroke-miterlimit="2" stroke-linecap="square" fill="#000000"/>
   <g stroke="#000000" id="svg_68" stroke-miterlimit="2" stroke-linecap="square" fill="#000000"/>
   <g stroke="#000000" id="svg_69" stroke-miterlimit="2" stroke-linecap="square" fill="#000000"/>
   <g stroke="#000000" id="svg_70" stroke-miterlimit="2" stroke-linecap="square" fill="#000000"/>
  </g>
 </g>
 <g>
  <title>Layer 2</title>
  <rect fill="none" y="0" x="0" height="100%" width="100%" id="backgroundrect"/>
 </g>
 <g>
  <title>background</title>
  <rect fill="none" id="canvas_background" height="30" width="30" y="-1" x="-1"/>
 </g>
</svg>