<?xml version="1.0" encoding="utf-8"?>
<svg version="1.1" id="Layer_1" xmlns="http://www.w3.org/2000/svg" xmlns:xlink="http://www.w3.org/1999/xlink" x="0px" y="0px"
	 viewBox="0 0 580.2 182.2" enable-background="new 0 0 580.2 182.2" xml:space="preserve">
<polygon fill="#0A314F" points="250,23.6 250,72.8 203.1,72.8 203.1,23.6 185.2,23.6 185.2,128.3 203.1,128.3 203.1,89.7 250,89.7 
	250,128.3 267.8,128.3 267.8,23.6 "/>
<path fill="#0A314F" d="M327.5,23.6h-45.4v104.7h17.8V90h27.6c18.3,0,33.2-14.8,33.2-33.2S345.8,23.6,327.5,23.6z M299.9,40.8H327
	c8.8-0.6,16.5,6,17.1,14.8c0.6,8.8-6,16.5-14.8,17.1c-0.8,0.1-1.5,0.1-2.3,0h-27.1V40.8z"/>
<path fill="#0A314F" d="M457.3,114.8c-21.7,20-55.6,18.6-75.6-3.2c-20-21.7-18.6-55.6,3.2-75.6c20.5-18.8,51.9-18.8,72.4,0
	l-12.8,13.8c-14.2-13-36.2-12.1-49.2,2.1c-13,14.2-12.1,36.2,2.1,49.2c13.4,12.3,34,12.2,47.3-0.1L457.3,114.8z"/>
<path fill="#0A314F" d="M550.6,114.8c-21.7,20-55.6,18.6-75.6-3.2c-20-21.7-18.6-55.6,3.2-75.6c20.5-18.8,51.9-18.8,72.4,0
	l-12.8,13.8c-14.2-13-36.2-12.1-49.2,2.1c-13,14.2-12.1,36.2,2.1,49.2c13.4,12.3,34,12.2,47.3-0.1L550.6,114.8z"/>
<path fill="#095F8A" d="M207.3,174.4c0,5.9-5.5,7.8-11.2,7.8c-3.8,0-7.6-1-10.8-2.9l2.5-3.9c2.6,1.5,5.5,2.3,8.5,2.4
	c3.6,0,6-0.9,6-3.1c0-2.4-3.2-3.3-6.7-4.4c-4.6-1.4-9.7-3-9.7-8.3c0-2.1,1-4,2.6-5.2c1.9-1.4,4.7-2.1,8.1-2.1c3.6,0,7.1,1,10.2,2.9
	l-2.4,3.8c-2.4-1.5-5.2-2.3-8-2.4c-3.7,0-5.5,1.1-5.5,2.7c0,2.5,3.3,3.4,6.9,4.5C202.2,167.7,207.3,169.4,207.3,174.4z"/>
<path fill="#095F8A" d="M265.4,155.2l-10.8,15.9v10.5h-4.9v-10.5L239,155.2h5.6l7.6,11.3l7.6-11.3H265.4z"/>
<path fill="#095F8A" d="M318.4,174.4c0,5.9-5.5,7.8-11.2,7.8c-3.8,0-7.5-1-10.8-2.9l2.5-3.9c2.6,1.5,5.5,2.3,8.5,2.4
	c3.6,0,6-0.9,6-3.1c0-2.4-3.2-3.3-6.7-4.4c-4.6-1.4-9.7-3-9.7-8.3c0-2.1,1-4,2.6-5.2c1.9-1.4,4.7-2.1,8.1-2.1c3.6,0,7.1,1,10.2,2.9
	l-2.4,3.8c-2.4-1.5-5.2-2.3-8.1-2.4c-3.7,0-5.5,1.1-5.5,2.7c0,2.5,3.3,3.4,6.9,4.5C313.4,167.7,318.4,169.4,318.4,174.4z"/>
<path fill="#095F8A" d="M374.7,155.2v4.5h-9.3v21.9h-4.8v-21.9h-9.3v-4.5H374.7z"/>
<path fill="#095F8A" d="M414,159.8v6.4h13.6v4.6H414v6.4h16.4v4.6h-21.3v-26.4h21.3v4.5H414z"/>
<path fill="#095F8A" d="M494.3,181.7h-4.8v-17.4l-8.2,11.4h-2.8l-8.2-11.4v17.4h-4.9v-26.4h3.8l10.6,14.9l10.7-14.9h3.8V181.7z"/>
<path fill="#095F8A" d="M550.6,174.4c0,5.9-5.5,7.8-11.2,7.8c-3.8,0-7.5-1-10.8-2.9l2.5-3.9c2.6,1.5,5.5,2.3,8.5,2.4
	c3.6,0,6-0.9,6-3.1c0-2.4-3.2-3.3-6.7-4.4c-4.6-1.4-9.7-3-9.7-8.3c0-2.1,1-4,2.7-5.2c1.9-1.4,4.7-2.1,8.1-2.1c3.6,0,7.1,1,10.2,2.9
	l-2.4,3.8c-2.4-1.5-5.2-2.3-8-2.4c-3.7,0-5.5,1.1-5.5,2.7c0,2.5,3.3,3.4,6.9,4.5C545.6,167.7,550.6,169.4,550.6,174.4z"/>
<circle fill="#0A314F" cx="81.9" cy="81.9" r="81.9"/>
<path fill="#FFFFFF" d="M78.6,48.8c6.6,4.3,16.4,0.4,16.2-8.7l0,0c-0.6-5.7-5.7-9.7-11.4-9.1c-0.3,0-0.6,0.1-0.8,0.1
	C73.6,32.8,71.1,43.9,78.6,48.8z"/>
<path fill="#FFFFFF" d="M74.3,122.7L74.3,122.7c-0.2,9.7,11.6,13.1,17.7,7.3c1.6-1.6,2.6-3.6,2.8-5.9c0.2-7.8-6.5-10.4-10.7-10.2
	C80.9,114.2,75.2,116.2,74.3,122.7z"/>
<path fill="#FFFFFF" d="M99.5,112.5c5.1,4.2,12.7,3.6,16.9-1.5c1.6-2,2.6-4.4,2.8-6.9c0.2-6.3-4.8-11.6-11.1-11.7
	c-0.4,0-0.9,0-1.3,0C96.3,93.2,91.7,105.8,99.5,112.5z"/>
<path fill="#FFFFFF" d="M124.1,92.7c7.6,6.3,19.9,2.1,20.5-10c0-7.8-6.4-13.7-13.9-12.9C119.8,71,115.5,85.5,124.1,92.7z"/>
<path fill="#FFFFFF" d="M95.6,61.4L95.6,61.4c1.1,11.8,14.9,14.8,21.1,7.1c1.7-2.1,2.5-4.8,2.4-7.5l0,0c-0.3-6.7-6-11.9-12.7-11.6
	c-0.2,0-0.5,0-0.7,0.1C99.8,50.2,95.4,55.4,95.6,61.4z"/>
<path fill="#60A9D4" d="M51.8,112.5c5.1,4.2,12.7,3.6,16.9-1.5c1.6-2,2.6-4.4,2.8-6.9c0.2-6.3-4.8-11.6-11.1-11.7
	c-0.4,0-0.9,0-1.3,0C48.6,93.2,44,105.8,51.8,112.5z"/>
<path fill="#60A9D4" d="M76.4,92.7c7.6,6.3,19.9,2.1,20.5-10c0-7.8-6.4-13.7-13.9-12.9C72,71,67.8,85.5,76.4,92.7z"/>
<path fill="#60A9D4" d="M47.9,61.4L47.9,61.4c1.1,11.8,14.9,14.8,21.1,7.1c1.6-2.1,2.5-4.8,2.4-7.5l0,0C70.6,52,63.1,48.8,58,49.4
	C52,50.2,47.7,55.4,47.9,61.4z"/>
<path fill="#00AE8F" d="M27.9,92.7c7.6,6.3,19.9,2.1,20.5-10c0-7.8-6.4-13.7-13.9-12.9C23.5,71,19.3,85.5,27.9,92.7z"/>
<path fill="#0A314F" d="M563.9,25.7h-2.6v-2h7.3v2h-2.5v6.6h-2.2V25.7z M571.2,23.7h2.6l1.2,2.9l0.7,2h0.1l0.7-2l1.2-2.9h2.5v8.6h-2
	v-3.2l0.2-3.1h-0.1l-1.8,4.9h-1.6l-1.8-4.9h-0.1l0.2,3.1v3.1h-2L571.2,23.7z"/>
</svg>
