<svg xmlns="http://www.w3.org/2000/svg" width="16" height="16" viewBox="0 0 16 16">
    <path fill="white" fill-rule="evenodd" d="M 4 7 H 3 V 2 h 1 v 5 z m -1 7 h 1 v -3 H 3 v 3 z m 5 0 h 1 V 8 H 8 v 6 z m 5 0 h 1 v -2 h -1 v 2 z m 1 -12 h -1 v 6 h 1 V 2 z M 9 2 H 8 v 2 h 1 V 2 z M 5 8 H 2 c -0.6 0 -1 0.5 -1 1 s 0.5 1 1 1 h 3 c 0.6 0 1 -0.5 1 -1 s -0.5 -1 -1 -1 z m 5 -3 H 7 c -0.6 0 -1 0.5 -1 1 s 0.5 1 1 1 h 3 c 0.6 0 1 -0.5 1 -1 s -0.5 -1 -1 -1 z m 5 4 h -3 c -0.6 0 -1 0.5 -1 1 s 0.5 1 1 1 h 3 c 0.6 0 1 -0.5 1 -1 s -0.5 -1 -1 -1 z"/>
</svg>